<svg style="height:auto;max-width:100%;width:100%" viewBox="0 0 25 25" height="256" width="256"
    xmlns="http://www.w3.org/2000/svg">
    <path d="M 0 0 l 1 0 0 1 -1 0 Z M 1 0 l 1 0 0 1 -1 0 Z M 2 0 l 1 0 0 1 -1 0 Z M 3 0 l 1 0 0 1 -1 0 Z M 4 0 l 1 0 0 1 -1 0 Z M 5 0 l 1 0 0 1 -1 0 Z M 6 0 l 1 0 0 1 -1 0 Z   M 9 0 l 1 0 0 1 -1 0 Z M 10 0 l 1 0 0 1 -1 0 Z M 11 0 l 1 0 0 1 -1 0 Z   M 14 0 l 1 0 0 1 -1 0 Z    M 18 0 l 1 0 0 1 -1 0 Z M 19 0 l 1 0 0 1 -1 0 Z M 20 0 l 1 0 0 1 -1 0 Z M 21 0 l 1 0 0 1 -1 0 Z M 22 0 l 1 0 0 1 -1 0 Z M 23 0 l 1 0 0 1 -1 0 Z M 24 0 l 1 0 0 1 -1 0 Z M 0 1 l 1 0 0 1 -1 0 Z      M 6 1 l 1 0 0 1 -1 0 Z     M 11 1 l 1 0 0 1 -1 0 Z M 12 1 l 1 0 0 1 -1 0 Z  M 14 1 l 1 0 0 1 -1 0 Z  M 16 1 l 1 0 0 1 -1 0 Z  M 18 1 l 1 0 0 1 -1 0 Z      M 24 1 l 1 0 0 1 -1 0 Z M 0 2 l 1 0 0 1 -1 0 Z  M 2 2 l 1 0 0 1 -1 0 Z M 3 2 l 1 0 0 1 -1 0 Z M 4 2 l 1 0 0 1 -1 0 Z  M 6 2 l 1 0 0 1 -1 0 Z   M 9 2 l 1 0 0 1 -1 0 Z M 10 2 l 1 0 0 1 -1 0 Z M 11 2 l 1 0 0 1 -1 0 Z   M 14 2 l 1 0 0 1 -1 0 Z    M 18 2 l 1 0 0 1 -1 0 Z  M 20 2 l 1 0 0 1 -1 0 Z M 21 2 l 1 0 0 1 -1 0 Z M 22 2 l 1 0 0 1 -1 0 Z  M 24 2 l 1 0 0 1 -1 0 Z M 0 3 l 1 0 0 1 -1 0 Z  M 2 3 l 1 0 0 1 -1 0 Z M 3 3 l 1 0 0 1 -1 0 Z M 4 3 l 1 0 0 1 -1 0 Z  M 6 3 l 1 0 0 1 -1 0 Z  M 8 3 l 1 0 0 1 -1 0 Z  M 10 3 l 1 0 0 1 -1 0 Z M 11 3 l 1 0 0 1 -1 0 Z  M 13 3 l 1 0 0 1 -1 0 Z     M 18 3 l 1 0 0 1 -1 0 Z  M 20 3 l 1 0 0 1 -1 0 Z M 21 3 l 1 0 0 1 -1 0 Z M 22 3 l 1 0 0 1 -1 0 Z  M 24 3 l 1 0 0 1 -1 0 Z M 0 4 l 1 0 0 1 -1 0 Z  M 2 4 l 1 0 0 1 -1 0 Z M 3 4 l 1 0 0 1 -1 0 Z M 4 4 l 1 0 0 1 -1 0 Z  M 6 4 l 1 0 0 1 -1 0 Z  M 8 4 l 1 0 0 1 -1 0 Z  M 10 4 l 1 0 0 1 -1 0 Z  M 12 4 l 1 0 0 1 -1 0 Z M 13 4 l 1 0 0 1 -1 0 Z   M 16 4 l 1 0 0 1 -1 0 Z  M 18 4 l 1 0 0 1 -1 0 Z  M 20 4 l 1 0 0 1 -1 0 Z M 21 4 l 1 0 0 1 -1 0 Z M 22 4 l 1 0 0 1 -1 0 Z  M 24 4 l 1 0 0 1 -1 0 Z M 0 5 l 1 0 0 1 -1 0 Z      M 6 5 l 1 0 0 1 -1 0 Z   M 9 5 l 1 0 0 1 -1 0 Z M 10 5 l 1 0 0 1 -1 0 Z      M 16 5 l 1 0 0 1 -1 0 Z  M 18 5 l 1 0 0 1 -1 0 Z      M 24 5 l 1 0 0 1 -1 0 Z M 0 6 l 1 0 0 1 -1 0 Z M 1 6 l 1 0 0 1 -1 0 Z M 2 6 l 1 0 0 1 -1 0 Z M 3 6 l 1 0 0 1 -1 0 Z M 4 6 l 1 0 0 1 -1 0 Z M 5 6 l 1 0 0 1 -1 0 Z M 6 6 l 1 0 0 1 -1 0 Z  M 8 6 l 1 0 0 1 -1 0 Z  M 10 6 l 1 0 0 1 -1 0 Z  M 12 6 l 1 0 0 1 -1 0 Z  M 14 6 l 1 0 0 1 -1 0 Z  M 16 6 l 1 0 0 1 -1 0 Z  M 18 6 l 1 0 0 1 -1 0 Z M 19 6 l 1 0 0 1 -1 0 Z M 20 6 l 1 0 0 1 -1 0 Z M 21 6 l 1 0 0 1 -1 0 Z M 22 6 l 1 0 0 1 -1 0 Z M 23 6 l 1 0 0 1 -1 0 Z M 24 6 l 1 0 0 1 -1 0 Z          M 9 7 l 1 0 0 1 -1 0 Z   M 12 7 l 1 0 0 1 -1 0 Z  M 14 7 l 1 0 0 1 -1 0 Z  M 16 7 l 1 0 0 1 -1 0 Z         M 0 8 l 1 0 0 1 -1 0 Z M 1 8 l 1 0 0 1 -1 0 Z    M 5 8 l 1 0 0 1 -1 0 Z M 6 8 l 1 0 0 1 -1 0 Z M 7 8 l 1 0 0 1 -1 0 Z  M 9 8 l 1 0 0 1 -1 0 Z M 10 8 l 1 0 0 1 -1 0 Z  M 12 8 l 1 0 0 1 -1 0 Z M 13 8 l 1 0 0 1 -1 0 Z M 14 8 l 1 0 0 1 -1 0 Z      M 20 8 l 1 0 0 1 -1 0 Z M 21 8 l 1 0 0 1 -1 0 Z     M 1 9 l 1 0 0 1 -1 0 Z M 2 9 l 1 0 0 1 -1 0 Z  M 4 9 l 1 0 0 1 -1 0 Z M 5 9 l 1 0 0 1 -1 0 Z  M 7 9 l 1 0 0 1 -1 0 Z   M 10 9 l 1 0 0 1 -1 0 Z     M 15 9 l 1 0 0 1 -1 0 Z  M 17 9 l 1 0 0 1 -1 0 Z  M 19 9 l 1 0 0 1 -1 0 Z M 20 9 l 1 0 0 1 -1 0 Z M 21 9 l 1 0 0 1 -1 0 Z M 22 9 l 1 0 0 1 -1 0 Z M 23 9 l 1 0 0 1 -1 0 Z  M 0 10 l 1 0 0 1 -1 0 Z    M 4 10 l 1 0 0 1 -1 0 Z  M 6 10 l 1 0 0 1 -1 0 Z   M 9 10 l 1 0 0 1 -1 0 Z  M 11 10 l 1 0 0 1 -1 0 Z M 12 10 l 1 0 0 1 -1 0 Z  M 14 10 l 1 0 0 1 -1 0 Z M 15 10 l 1 0 0 1 -1 0 Z M 16 10 l 1 0 0 1 -1 0 Z  M 18 10 l 1 0 0 1 -1 0 Z   M 21 10 l 1 0 0 1 -1 0 Z  M 23 10 l 1 0 0 1 -1 0 Z M 24 10 l 1 0 0 1 -1 0 Z     M 4 11 l 1 0 0 1 -1 0 Z M 5 11 l 1 0 0 1 -1 0 Z  M 7 11 l 1 0 0 1 -1 0 Z M 8 11 l 1 0 0 1 -1 0 Z  M 10 11 l 1 0 0 1 -1 0 Z M 11 11 l 1 0 0 1 -1 0 Z     M 16 11 l 1 0 0 1 -1 0 Z   M 19 11 l 1 0 0 1 -1 0 Z  M 21 11 l 1 0 0 1 -1 0 Z   M 24 11 l 1 0 0 1 -1 0 Z     M 4 12 l 1 0 0 1 -1 0 Z  M 6 12 l 1 0 0 1 -1 0 Z M 7 12 l 1 0 0 1 -1 0 Z M 8 12 l 1 0 0 1 -1 0 Z M 9 12 l 1 0 0 1 -1 0 Z M 10 12 l 1 0 0 1 -1 0 Z  M 12 12 l 1 0 0 1 -1 0 Z   M 15 12 l 1 0 0 1 -1 0 Z   M 18 12 l 1 0 0 1 -1 0 Z      M 24 12 l 1 0 0 1 -1 0 Z M 0 13 l 1 0 0 1 -1 0 Z   M 3 13 l 1 0 0 1 -1 0 Z M 4 13 l 1 0 0 1 -1 0 Z    M 8 13 l 1 0 0 1 -1 0 Z  M 10 13 l 1 0 0 1 -1 0 Z  M 12 13 l 1 0 0 1 -1 0 Z M 13 13 l 1 0 0 1 -1 0 Z  M 15 13 l 1 0 0 1 -1 0 Z M 16 13 l 1 0 0 1 -1 0 Z   M 19 13 l 1 0 0 1 -1 0 Z    M 23 13 l 1 0 0 1 -1 0 Z  M 0 14 l 1 0 0 1 -1 0 Z     M 5 14 l 1 0 0 1 -1 0 Z M 6 14 l 1 0 0 1 -1 0 Z   M 9 14 l 1 0 0 1 -1 0 Z M 10 14 l 1 0 0 1 -1 0 Z     M 15 14 l 1 0 0 1 -1 0 Z M 16 14 l 1 0 0 1 -1 0 Z   M 19 14 l 1 0 0 1 -1 0 Z M 20 14 l 1 0 0 1 -1 0 Z M 21 14 l 1 0 0 1 -1 0 Z  M 23 14 l 1 0 0 1 -1 0 Z M 24 14 l 1 0 0 1 -1 0 Z M 0 15 l 1 0 0 1 -1 0 Z   M 3 15 l 1 0 0 1 -1 0 Z M 4 15 l 1 0 0 1 -1 0 Z M 5 15 l 1 0 0 1 -1 0 Z   M 8 15 l 1 0 0 1 -1 0 Z M 9 15 l 1 0 0 1 -1 0 Z  M 11 15 l 1 0 0 1 -1 0 Z   M 14 15 l 1 0 0 1 -1 0 Z  M 16 15 l 1 0 0 1 -1 0 Z M 17 15 l 1 0 0 1 -1 0 Z M 18 15 l 1 0 0 1 -1 0 Z M 19 15 l 1 0 0 1 -1 0 Z  M 21 15 l 1 0 0 1 -1 0 Z M 22 15 l 1 0 0 1 -1 0 Z  M 24 15 l 1 0 0 1 -1 0 Z M 0 16 l 1 0 0 1 -1 0 Z   M 3 16 l 1 0 0 1 -1 0 Z M 4 16 l 1 0 0 1 -1 0 Z M 5 16 l 1 0 0 1 -1 0 Z M 6 16 l 1 0 0 1 -1 0 Z M 7 16 l 1 0 0 1 -1 0 Z M 8 16 l 1 0 0 1 -1 0 Z   M 11 16 l 1 0 0 1 -1 0 Z M 12 16 l 1 0 0 1 -1 0 Z M 13 16 l 1 0 0 1 -1 0 Z   M 16 16 l 1 0 0 1 -1 0 Z M 17 16 l 1 0 0 1 -1 0 Z M 18 16 l 1 0 0 1 -1 0 Z M 19 16 l 1 0 0 1 -1 0 Z M 20 16 l 1 0 0 1 -1 0 Z  M 22 16 l 1 0 0 1 -1 0 Z           M 8 17 l 1 0 0 1 -1 0 Z   M 11 17 l 1 0 0 1 -1 0 Z M 12 17 l 1 0 0 1 -1 0 Z M 13 17 l 1 0 0 1 -1 0 Z   M 16 17 l 1 0 0 1 -1 0 Z    M 20 17 l 1 0 0 1 -1 0 Z     M 0 18 l 1 0 0 1 -1 0 Z M 1 18 l 1 0 0 1 -1 0 Z M 2 18 l 1 0 0 1 -1 0 Z M 3 18 l 1 0 0 1 -1 0 Z M 4 18 l 1 0 0 1 -1 0 Z M 5 18 l 1 0 0 1 -1 0 Z M 6 18 l 1 0 0 1 -1 0 Z  M 8 18 l 1 0 0 1 -1 0 Z M 9 18 l 1 0 0 1 -1 0 Z M 10 18 l 1 0 0 1 -1 0 Z M 11 18 l 1 0 0 1 -1 0 Z     M 16 18 l 1 0 0 1 -1 0 Z  M 18 18 l 1 0 0 1 -1 0 Z  M 20 18 l 1 0 0 1 -1 0 Z    M 24 18 l 1 0 0 1 -1 0 Z M 0 19 l 1 0 0 1 -1 0 Z      M 6 19 l 1 0 0 1 -1 0 Z  M 8 19 l 1 0 0 1 -1 0 Z       M 15 19 l 1 0 0 1 -1 0 Z M 16 19 l 1 0 0 1 -1 0 Z    M 20 19 l 1 0 0 1 -1 0 Z     M 0 20 l 1 0 0 1 -1 0 Z  M 2 20 l 1 0 0 1 -1 0 Z M 3 20 l 1 0 0 1 -1 0 Z M 4 20 l 1 0 0 1 -1 0 Z  M 6 20 l 1 0 0 1 -1 0 Z   M 9 20 l 1 0 0 1 -1 0 Z  M 11 20 l 1 0 0 1 -1 0 Z M 12 20 l 1 0 0 1 -1 0 Z M 13 20 l 1 0 0 1 -1 0 Z M 14 20 l 1 0 0 1 -1 0 Z M 15 20 l 1 0 0 1 -1 0 Z M 16 20 l 1 0 0 1 -1 0 Z M 17 20 l 1 0 0 1 -1 0 Z M 18 20 l 1 0 0 1 -1 0 Z M 19 20 l 1 0 0 1 -1 0 Z M 20 20 l 1 0 0 1 -1 0 Z  M 22 20 l 1 0 0 1 -1 0 Z   M 0 21 l 1 0 0 1 -1 0 Z  M 2 21 l 1 0 0 1 -1 0 Z M 3 21 l 1 0 0 1 -1 0 Z M 4 21 l 1 0 0 1 -1 0 Z  M 6 21 l 1 0 0 1 -1 0 Z    M 10 21 l 1 0 0 1 -1 0 Z M 11 21 l 1 0 0 1 -1 0 Z   M 14 21 l 1 0 0 1 -1 0 Z  M 16 21 l 1 0 0 1 -1 0 Z M 17 21 l 1 0 0 1 -1 0 Z M 18 21 l 1 0 0 1 -1 0 Z     M 23 21 l 1 0 0 1 -1 0 Z M 24 21 l 1 0 0 1 -1 0 Z M 0 22 l 1 0 0 1 -1 0 Z  M 2 22 l 1 0 0 1 -1 0 Z M 3 22 l 1 0 0 1 -1 0 Z M 4 22 l 1 0 0 1 -1 0 Z  M 6 22 l 1 0 0 1 -1 0 Z    M 10 22 l 1 0 0 1 -1 0 Z   M 13 22 l 1 0 0 1 -1 0 Z   M 16 22 l 1 0 0 1 -1 0 Z     M 21 22 l 1 0 0 1 -1 0 Z M 22 22 l 1 0 0 1 -1 0 Z  M 24 22 l 1 0 0 1 -1 0 Z M 0 23 l 1 0 0 1 -1 0 Z      M 6 23 l 1 0 0 1 -1 0 Z  M 8 23 l 1 0 0 1 -1 0 Z   M 11 23 l 1 0 0 1 -1 0 Z   M 14 23 l 1 0 0 1 -1 0 Z  M 16 23 l 1 0 0 1 -1 0 Z M 17 23 l 1 0 0 1 -1 0 Z  M 19 23 l 1 0 0 1 -1 0 Z M 20 23 l 1 0 0 1 -1 0 Z    M 24 23 l 1 0 0 1 -1 0 Z M 0 24 l 1 0 0 1 -1 0 Z M 1 24 l 1 0 0 1 -1 0 Z M 2 24 l 1 0 0 1 -1 0 Z M 3 24 l 1 0 0 1 -1 0 Z M 4 24 l 1 0 0 1 -1 0 Z M 5 24 l 1 0 0 1 -1 0 Z M 6 24 l 1 0 0 1 -1 0 Z  M 8 24 l 1 0 0 1 -1 0 Z M 9 24 l 1 0 0 1 -1 0 Z M 10 24 l 1 0 0 1 -1 0 Z  M 12 24 l 1 0 0 1 -1 0 Z    M 16 24 l 1 0 0 1 -1 0 Z M 17 24 l 1 0 0 1 -1 0 Z M 18 24 l 1 0 0 1 -1 0 Z   M 21 24 l 1 0 0 1 -1 0 Z   M 24 24 l 1 0 0 1 -1 0 Z" fill="#000"></path>
</svg>